<?xml version="1.0" encoding="UTF-8"?>
<svg version="1.1" xmlns="http://www.w3.org/2000/svg" width="2084" height="2084">
<path d="M0 0 C687.72 0 1375.44 0 2084 0 C2084 687.72 2084 1375.44 2084 2084 C1396.28 2084 708.56 2084 0 2084 C0 1396.28 0 708.56 0 0 Z " fill="#00684F" transform="translate(0,0)"/>
<path d="M0 0 C0.99 0 1.98 0 3 0 C5.13207821 8.37254578 7.26235866 16.74554626 9.39051342 25.11909008 C10.37937729 29.00970164 11.36879787 32.90016963 12.35961914 36.7902832 C13.50579769 41.2907399 14.65020276 45.79164433 15.79296875 50.29296875 C15.97991177 51.02914303 16.16685478 51.76531731 16.35946274 52.5237999 C18.55625126 61.18330918 20.7048552 69.85118748 22.73828125 78.55078125 C24.12019375 84.46288276 25.61178185 90.3189731 27.28125 96.15625 C29.74333423 104.79111207 31.89389899 113.49927896 34.03125 122.21875 C34.21128571 122.95285095 34.39132141 123.6869519 34.57681274 124.44329834 C36.07838992 130.57021365 37.57305361 136.69881204 39.06756592 142.82745361 C40.3648594 148.14614732 41.6646435 153.46422243 42.96875 158.78125 C43.14938492 159.5179039 43.33001984 160.2545578 43.51612854 161.01353455 C45.40551087 168.70589427 47.31325553 176.38559518 49.5 184 C51.89820149 192.35071368 53.96244839 200.78189409 56.03125 209.21875 C56.3017794 210.32173683 56.3017794 210.32173683 56.57777405 211.44700623 C58.07903224 217.57268513 59.5733561 223.7000525 61.06756592 229.82745361 C62.3648594 235.14614732 63.6646435 240.46422243 64.96875 245.78125 C65.14938492 246.5179039 65.33001984 247.2545578 65.51612854 248.01353455 C67.40551087 255.70589427 69.31325553 263.38559518 71.5 271 C73.89820149 279.35071368 75.96244839 287.78189409 78.03125 296.21875 C78.3017794 297.32173683 78.3017794 297.32173683 78.57777405 298.44700623 C80.07903224 304.57268513 81.5733561 310.7000525 83.06756592 316.82745361 C84.3648594 322.14614732 85.66464935 327.464221 86.96875 332.78125 C87.14921875 333.51723923 87.3296875 334.25322845 87.515625 335.01152039 C89.57961921 343.41495035 91.71211281 351.78597349 94.09924316 360.10424805 C96.18616677 367.47083202 97.99143501 374.90805428 99.8125 382.34375 C99.98186569 383.03512558 100.15123138 383.72650116 100.32572937 384.43882751 C101.73223575 390.18530604 103.13174403 395.93348546 104.53112793 401.68170166 C105.74677973 406.67398772 106.96495618 411.66564694 108.1875 416.65625 C108.35722824 417.34927719 108.52695648 418.04230438 108.701828 418.7563324 C110.51828692 426.15997067 112.365744 433.54679468 114.46875 440.875 C116.87547737 449.26792782 118.95225593 457.74017829 121.03125 466.21875 C121.30171143 467.32146492 121.30171143 467.32146492 121.57763672 468.44645691 C123.07894061 474.57231894 124.57331138 480.69986913 126.06756592 486.82745361 C127.36485938 492.14614724 128.664564 497.46424197 129.96875 502.78125 C130.14732859 503.50934624 130.32590717 504.23744247 130.50989723 504.98760223 C132.84925036 514.50904567 135.27737221 523.99482346 137.97924805 533.42089844 C143.11864239 551.44135312 143.11864239 551.44135312 143 559 C142.27635254 559.1858667 141.55270508 559.3717334 140.80712891 559.56323242 C137.41262456 560.43620489 134.01881515 561.31185218 130.625 562.1875 C128.91957031 562.62545898 128.91957031 562.62545898 127.1796875 563.07226562 C121.50574035 564.5380353 115.85027157 566.03494274 110.21481323 567.64241028 C94.70027366 572.04961392 78.98653357 575.71674877 63.31829834 579.53112793 C58.32601228 580.74677973 53.33435306 581.96495618 48.34375 583.1875 C47.65072281 583.35722824 46.95769562 583.52695648 46.2436676 583.701828 C38.84002933 585.51828692 31.45320532 587.365744 24.125 589.46875 C15.73207218 591.87547737 7.25982171 593.95225593 -1.21875 596.03125 C-2.32146492 596.30171143 -2.32146492 596.30171143 -3.44645691 596.57763672 C-9.57231894 598.07894061 -15.69986913 599.57331138 -21.82745361 601.06756592 C-27.14614732 602.3648594 -32.464221 603.66464935 -37.78125 604.96875 C-38.51723923 605.14921875 -39.25322845 605.3296875 -40.01152039 605.515625 C-48.41495035 607.57961921 -56.78597349 609.71211281 -65.10424805 612.09924316 C-72.47083202 614.18616677 -79.90805428 615.99143501 -87.34375 617.8125 C-88.03512558 617.98186569 -88.72650116 618.15123138 -89.43882751 618.32572937 C-95.18530604 619.73223575 -100.93348546 621.13174403 -106.68170166 622.53112793 C-111.67398772 623.74677973 -116.66564694 624.96495618 -121.65625 626.1875 C-122.34927719 626.35722824 -123.04230438 626.52695648 -123.7563324 626.701828 C-131.15997067 628.51828692 -138.54679468 630.365744 -145.875 632.46875 C-154.26792782 634.87547737 -162.74017829 636.95225593 -171.21875 639.03125 C-172.32146492 639.30171143 -172.32146492 639.30171143 -173.44645691 639.57763672 C-179.57231894 641.07894061 -185.69986913 642.57331138 -191.82745361 644.06756592 C-197.14614732 645.3648594 -202.46422243 646.6646435 -207.78125 647.96875 C-208.5179039 648.14938492 -209.2545578 648.33001984 -210.01353455 648.51612854 C-217.70589427 650.40551087 -225.38559518 652.31325553 -233 654.5 C-241.35071368 656.89820149 -249.78189409 658.96244839 -258.21875 661.03125 C-259.32173683 661.3017794 -259.32173683 661.3017794 -260.44700623 661.57777405 C-266.57268513 663.07903224 -272.7000525 664.5733561 -278.82745361 666.06756592 C-284.14614723 667.36485938 -289.46424769 668.66454067 -294.78125 669.96875 C-295.51420666 670.14853331 -296.24716331 670.32831661 -297.00233078 670.5135479 C-305.61223956 672.62909162 -314.19466493 674.80728228 -322.72195435 677.23780823 C-331.55197504 679.74933465 -340.45468684 681.97688464 -349.36425781 684.18676758 C-351.39796783 684.69387578 -353.43017268 685.20705321 -355.4609375 685.72583008 C-358.43690303 686.48567624 -361.41688559 687.22726671 -364.3984375 687.96484375 C-365.30564545 688.20009262 -366.21285339 688.43534149 -367.14755249 688.67771912 C-367.99008575 688.88195999 -368.83261902 689.08620087 -369.70068359 689.29663086 C-370.43692963 689.48140488 -371.17317566 689.66617889 -371.93173218 689.85655212 C-374.53569845 690.03715418 -375.81066867 689.37147462 -378 688 C-379.53295898 686.39038086 -379.53295898 686.39038086 -380.99609375 684.46484375 C-381.54813477 683.74643311 -382.10017578 683.02802246 -382.66894531 682.2878418 C-383.25256836 681.512229 -383.83619141 680.73661621 -384.4375 679.9375 C-385.05077148 679.13546143 -385.66404297 678.33342285 -386.29589844 677.50708008 C-387.57347373 675.83472812 -388.84768501 674.1598013 -390.11865234 672.48242188 C-391.89082468 670.14405589 -393.67172522 667.81272232 -395.45703125 665.484375 C-397.63622327 662.64190884 -399.81214928 659.7970123 -401.984375 656.94921875 C-404.64739102 653.45925734 -407.32132464 649.97795752 -410 646.5 C-414.40772904 640.77567658 -418.79685525 635.03729383 -423.18359375 629.296875 C-426.44848676 625.02562673 -429.72003958 620.75968886 -433 616.5 C-439.58426721 607.94789849 -446.13321953 599.36880362 -452.68652344 590.79296875 C-458.17895173 583.60589814 -463.6722097 576.41954916 -469.1875 569.25 C-469.97253906 568.22777344 -470.75757813 567.20554687 -471.56640625 566.15234375 C-473.3153009 563.88692163 -475.07250733 561.62982135 -476.83984375 559.37890625 C-477.30559814 558.78239258 -477.77135254 558.18587891 -478.2512207 557.57128906 C-479.14813996 556.42300289 -480.04885958 555.27767222 -480.95385742 554.13574219 C-484 550.22497935 -484 550.22497935 -484 548 C-476.14899906 545.99826971 -468.29753349 543.9983752 -460.44551563 542.00063801 C-456.79703681 541.07232237 -453.14870367 540.14344319 -449.50073242 539.21313477 C-445.27827914 538.13642255 -441.05536964 537.06151642 -436.83203125 535.98828125 C-436.13948368 535.81224491 -435.44693611 535.63620857 -434.73340225 535.4548378 C-426.36330816 533.32956842 -417.98337568 531.25907565 -409.57421875 529.29296875 C-403.5788754 527.89088637 -397.63889975 526.37878019 -391.71875 524.6875 C-383.41407559 522.3210298 -375.0427374 520.24063772 -366.65625 518.1875 C-365.96609802 518.01845154 -365.27594604 517.84940308 -364.56488037 517.67523193 C-358.81716541 516.26840662 -353.06775512 514.86855798 -347.31829834 513.46887207 C-342.32601228 512.25322027 -337.33435306 511.03504382 -332.34375 509.8125 C-331.65072281 509.64277176 -330.95769562 509.47304352 -330.2436676 509.298172 C-322.84002933 507.48171308 -315.45320532 505.634256 -308.125 503.53125 C-299.73207218 501.12452263 -291.25982171 499.04774407 -282.78125 496.96875 C-282.04610672 496.78844238 -281.31096344 496.60813477 -280.55354309 496.42236328 C-274.42768106 494.92105939 -268.30013087 493.42668862 -262.17254639 491.93243408 C-256.85385268 490.6351406 -251.53577757 489.3353565 -246.21875 488.03125 C-245.11376915 487.76029762 -245.11376915 487.76029762 -243.98646545 487.48387146 C-236.29410573 485.59448913 -228.61440482 483.68674447 -221 481.5 C-212.64928632 479.10179851 -204.21810591 477.03755161 -195.78125 474.96875 C-194.67826317 474.6982206 -194.67826317 474.6982206 -193.55299377 474.42222595 C-187.42731487 472.92096776 -181.2999475 471.4266439 -175.17254639 469.93243408 C-169.8538527 468.6351406 -164.53577363 467.33537253 -159.21875 466.03125 C-158.11432997 465.76042225 -158.11432997 465.76042225 -156.98759842 465.48412323 C-148.60590905 463.42530996 -140.2559792 461.29989305 -131.959198 458.91888428 C-119.36209084 455.35014622 -106.58258759 452.40595867 -93.86566162 449.29797363 C-90.10266689 448.37769996 -86.34042562 447.45435648 -82.578125 446.53125 C-75.99519964 444.91638062 -69.41163023 443.30416628 -62.82754517 441.69403076 C-60.55020957 441.13505084 -58.27427323 440.5712839 -56 440 C-58.64854313 429.22746908 -61.30003337 418.45566805 -63.95511913 407.6847477 C-65.1883621 402.68145217 -66.42065087 397.67792594 -67.65063477 392.67382812 C-68.84133252 387.82972353 -70.03469877 382.98628302 -71.22979164 378.14326096 C-71.68154095 376.31066896 -72.13238522 374.47785358 -72.58223534 372.64479446 C-74.97263294 362.90705066 -77.46177558 353.21363198 -80.18152905 343.56248665 C-82.17566702 336.45376988 -83.96383243 329.3009918 -85.70935059 322.12773132 C-86.27129846 319.81873649 -86.83692212 317.51066577 -87.40332031 315.20275879 C-88.80743523 309.47838627 -90.20565839 303.75257846 -91.60400391 298.02679443 C-92.79380287 293.15596459 -93.98596522 288.28572404 -95.18103027 283.41618347 C-95.72873591 281.18054623 -96.27316304 278.94412946 -96.81738281 276.7076416 C-98.78777562 268.65185415 -100.90798113 260.65313804 -103.15380096 252.66981506 C-105.08599554 245.76947665 -106.83283812 238.83130604 -108.52415466 231.86851501 C-109.05246369 229.69393192 -109.58450106 227.52028655 -110.11730957 225.34680176 C-111.43798345 219.95633925 -112.75271672 214.56443201 -114.06756592 209.17254639 C-115.3648594 203.8538527 -116.66462826 198.53577382 -117.96875 193.21875 C-118.14847099 192.48585566 -118.32819199 191.75296131 -118.51335907 190.99785805 C-120.62970728 182.38198198 -122.81401487 173.79601729 -125.25140381 165.26445007 C-127.74201552 156.50345467 -129.86831449 147.64919966 -132.02197266 138.80053711 C-132.75872704 135.77668169 -133.50218419 132.75452405 -134.24609375 129.73242188 C-134.7217528 127.78655574 -135.19702763 125.84059562 -135.671875 123.89453125 C-135.89164001 123.00280716 -136.11140503 122.11108307 -136.33782959 121.19233704 C-137.48151414 116.47044643 -138.40668734 111.82291275 -139 107 C-122.33170235 94.01544397 -105.58121285 81.14236929 -88.79296875 68.31347656 C-80.64401776 62.08597005 -72.50119985 55.85092388 -64.375 49.59375 C-59.69064179 45.99039753 -54.99265633 42.40484908 -50.296875 38.81640625 C-46.02562673 35.55151324 -41.75968886 32.27996042 -37.5 29 C-32.50799194 25.15615379 -27.50598542 21.32562207 -22.5 17.5 C-17.16354354 13.42073576 -11.82785509 9.34049528 -6.5 5.25 C-4.93765625 4.05117188 -4.93765625 4.05117188 -3.34375 2.828125 C-1.16444978 1.20533717 -1.16444978 1.20533717 0 0 Z " fill="#FAF5EA" transform="translate(1242,814)"/>
<path d="M0 0 C-0.69307302 3.67119781 -1.64550713 6.86885546 -3.08984375 10.3203125 C-3.75717529 11.92447021 -3.75717529 11.92447021 -4.43798828 13.56103516 C-4.93282715 14.73714355 -5.42766602 15.91325195 -5.9375 17.125 C-6.46897852 18.39746034 -7.0000527 19.67008963 -7.53076172 20.94287109 C-9.02262326 24.51725157 -10.52045041 28.08910752 -12.019104 31.66064453 C-13.73878017 35.76192935 -15.45294605 39.86551765 -17.16796875 43.96875 C-20.59845286 52.1737449 -24.03392206 60.37664346 -27.4712677 68.57876587 C-31.277081 77.66030784 -35.07931528 86.74334602 -38.88104248 95.82659912 C-40.75386805 100.30113317 -42.62694717 104.77556108 -44.5 109.25 C-45.25000121 111.04166616 -46.00000121 112.83333283 -46.75 114.625 C-87.24999998 211.37499995 -87.24999998 211.37499995 -88.37501526 214.06253052 C-89.12497003 215.8540931 -89.87491917 217.64565804 -90.62486267 219.43722534 C-92.50050841 223.91800387 -94.37625224 228.39874129 -96.25219727 232.87939453 C-99.61958008 240.92257989 -102.98629672 248.9660403 -106.34928894 257.01106262 C-114.42709276 276.33474628 -122.53149371 295.64667927 -130.6875 314.9375 C-137.26601107 330.49743744 -143.79909157 346.07531345 -150.28598022 361.67364502 C-150.588638 362.40138123 -150.89129578 363.12911743 -151.203125 363.87890625 C-151.65940781 364.97606964 -151.65940781 364.97606964 -152.12490845 366.09539795 C-156.00607114 375.42391091 -159.90961277 384.74306063 -163.8125 394.0625 C-164.18915802 394.9619635 -164.56581604 395.861427 -164.95388794 396.78814697 C-166.86963703 401.36290696 -168.78558974 405.93758162 -170.70166016 410.51220703 C-174.09501077 418.61413952 -177.48645331 426.7168707 -180.87802124 434.81954956 C-182.75193424 439.29639983 -184.62597358 443.77319721 -186.5 448.25 C-187.2500006 450.04166641 -188.0000006 451.83333308 -188.75 453.625 C-211.24999999 507.37499998 -211.24999999 507.37499998 -212.37501526 510.06253052 C-213.12497003 511.8540931 -213.87491917 513.64565804 -214.62486267 515.43722534 C-216.50050841 519.91800387 -218.37625224 524.39874129 -220.25219727 528.87939453 C-223.61950786 536.92240739 -226.98614689 544.96569753 -230.34907532 553.01054382 C-238.72233303 573.04106919 -247.12102963 593.06061275 -255.5625 613.0625 C-255.98240204 614.05795837 -256.40230408 615.05341675 -256.83493042 616.07904053 C-258.01548951 618.87723671 -259.19700833 621.67502534 -260.37890625 624.47265625 C-260.73215973 625.3100383 -261.08541321 626.14742035 -261.44937134 627.01017761 C-263.88461905 632.76923811 -263.88461905 632.76923811 -265 635 C-294.07835818 635.9085889 -323.15248229 636.28228177 -352.24316406 636.53222656 C-356.83774597 636.5726099 -361.43229008 636.61662891 -366.0268383 636.66065407 C-391.68510004 636.90543313 -417.34051359 637.07476588 -443 637 C-442.41682075 633.71340642 -441.62712357 630.78441756 -440.33618164 627.70849609 C-439.82173996 626.47317894 -439.82173996 626.47317894 -439.29690552 625.21290588 C-438.92177826 624.32538132 -438.546651 623.43785675 -438.16015625 622.5234375 C-437.76682098 621.58253769 -437.37348572 620.64163788 -436.9682312 619.67222595 C-435.67068874 616.57130036 -434.3666237 613.47316287 -433.0625 610.375 C-432.15070135 608.1996396 -431.23932993 606.02410007 -430.32836914 603.84838867 C-428.45990829 599.38766545 -426.58890958 594.92801992 -424.71582031 590.46923828 C-422.24890945 584.59566689 -419.79052353 578.71857461 -417.3359375 572.83984375 C-409.30267318 553.60625335 -401.21747855 534.39504208 -393.10083008 515.19650269 C-386.92713521 500.59154679 -380.80261755 485.96695883 -374.71401978 471.32635498 C-374.411362 470.59861877 -374.10870422 469.87088257 -373.796875 469.12109375 C-373.49268646 468.38965149 -373.18849792 467.65820923 -372.87509155 466.90460205 C-368.99392886 457.57608909 -365.09038723 448.25693937 -361.1875 438.9375 C-360.81084198 438.0380365 -360.43418396 437.138573 -360.04611206 436.21185303 C-358.13036297 431.63709304 -356.21441026 427.06241838 -354.29833984 422.48779297 C-350.90498923 414.38586048 -347.51354669 406.2831293 -344.12197876 398.18045044 C-342.24806576 393.70360017 -340.37402642 389.22680279 -338.5 384.75 C-337.7499994 382.95833359 -336.9999994 381.16666692 -336.25 379.375 C-313.75000001 325.62500002 -313.75000001 325.62500002 -312.62498474 322.93746948 C-311.87502997 321.1459069 -311.12508083 319.35434196 -310.37513733 317.56277466 C-308.49949159 313.08199613 -306.62374776 308.60125871 -304.74780273 304.12060547 C-301.38041992 296.07742011 -298.01370328 288.0339597 -294.65071106 279.98893738 C-286.57290724 260.66525372 -278.46850629 241.35332073 -270.3125 222.0625 C-263.73398893 206.50256256 -257.20090843 190.92468655 -250.71401978 175.32635498 C-250.26003311 174.23475067 -250.26003311 174.23475067 -249.796875 173.12109375 C-249.49268646 172.38965149 -249.18849792 171.65820923 -248.87509155 170.90460205 C-244.99392886 161.57608909 -241.09038723 152.25693937 -237.1875 142.9375 C-236.62251297 141.58830475 -236.62251297 141.58830475 -236.04611206 140.21185303 C-234.13036297 135.63709304 -232.21441026 131.06241838 -230.29833984 126.48779297 C-226.90460835 118.38495108 -223.51281415 110.2812983 -220.12088013 102.17770386 C-219.00054922 99.50131204 -217.88005895 96.82498699 -216.75952148 94.14868164 C-212.95696779 85.06631238 -209.15646152 75.98309388 -205.359375 66.8984375 C-198.5512651 50.61193536 -191.73974711 34.32677574 -184.86462402 18.06842041 C-184.25143214 16.61771095 -183.63903292 15.16666616 -183.02746582 13.715271 C-182.19650849 11.74404336 -181.36242898 9.77416923 -180.52734375 7.8046875 C-180.06062256 6.70108887 -179.59390137 5.59749023 -179.11303711 4.46044922 C-178 2 -178 2 -177 1 C-175.10195757 0.87566303 -173.19927865 0.82192968 -171.29736328 0.79467773 C-169.4289679 0.76476746 -169.4289679 0.76476746 -167.52282715 0.73425293 C-166.12199164 0.71714363 -164.72115328 0.70026579 -163.3203125 0.68359375 C-161.84281028 0.66282861 -160.36531197 0.6417844 -158.88781738 0.6204834 C-154.82141346 0.56376117 -150.75494898 0.51465234 -146.68842316 0.46757126 C-144.13216716 0.43758408 -141.57594128 0.40568525 -139.01971436 0.37332153 C-92.68192917 -0.20624697 -46.34039564 -0.09643589 0 0 Z " fill="#FAF5EA" transform="translate(1159,675)"/>
<path d="M0 0 C-1.93118991 6.05238556 -4.11908437 11.92544157 -6.59765625 17.7734375 C-6.94367889 18.5974707 -7.28970154 19.42150391 -7.64620972 20.27050781 C-8.78192658 22.97329812 -9.92221871 25.67413261 -11.0625 28.375 C-11.87021593 30.29494042 -12.6775825 32.21502785 -13.48461914 34.13525391 C-15.15934178 38.11936479 -16.83556077 42.10284137 -18.51269531 46.0859375 C-20.85770159 51.65808549 -23.19267575 57.23438083 -25.5234375 62.8125 C-25.88839325 63.68584488 -26.253349 64.55918976 -26.62936401 65.45899963 C-27.36418257 67.2174657 -28.098995 68.97593432 -28.83380127 70.73440552 C-35.41657855 86.48367195 -42.040291 102.21533003 -48.6875 117.9375 C-55.26601107 133.49743744 -61.79909157 149.07531345 -68.28598022 164.67364502 C-68.73996689 165.76524933 -68.73996689 165.76524933 -69.203125 166.87890625 C-69.65940781 167.97606964 -69.65940781 167.97606964 -70.12490845 169.09539795 C-74.00607114 178.42391091 -77.90961277 187.74306063 -81.8125 197.0625 C-82.37748703 198.41169525 -82.37748703 198.41169525 -82.95388794 199.78814697 C-84.86963703 204.36290696 -86.78558974 208.93758162 -88.70166016 213.51220703 C-92.09501077 221.61413952 -95.48645331 229.7168707 -98.87802124 237.81954956 C-100.75193424 242.29639983 -102.62597358 246.77319721 -104.5 251.25 C-105.2500006 253.04166641 -106.0000006 254.83333308 -106.75 256.625 C-129.24999999 310.37499998 -129.24999999 310.37499998 -130.37501526 313.06253052 C-131.12497003 314.8540931 -131.87491917 316.64565804 -132.62486267 318.43722534 C-134.50050841 322.91800387 -136.37625224 327.39874129 -138.25219727 331.87939453 C-141.61958008 339.92257989 -144.98629672 347.9660403 -148.34928894 356.01106262 C-156.42709276 375.33474628 -164.53149371 394.64667927 -172.6875 413.9375 C-179.26601107 429.49743744 -185.79909157 445.07531345 -192.28598022 460.67364502 C-192.588638 461.40138123 -192.89129578 462.12911743 -193.203125 462.87890625 C-193.50731354 463.61034851 -193.81150208 464.34179077 -194.12490845 465.09539795 C-198.00607114 474.42391091 -201.90961277 483.74306063 -205.8125 493.0625 C-206.18915802 493.9619635 -206.56581604 494.861427 -206.95388794 495.78814697 C-208.86963703 500.36290696 -210.78558974 504.93758162 -212.70166016 509.51220703 C-216.09539165 517.61504892 -219.48718585 525.7187017 -222.87911987 533.82229614 C-223.99945078 536.49868796 -225.11994105 539.17501301 -226.24047852 541.85131836 C-229.65473434 550.00624124 -233.0680558 558.16155021 -236.47740173 566.31852722 C-243.97129423 584.24781715 -251.47460323 602.17274707 -259.0625 620.0625 C-259.36281128 620.77094055 -259.66312256 621.4793811 -259.97253418 622.20928955 C-260.80506272 624.17243885 -261.63860508 626.13515344 -262.47265625 628.09765625 C-262.93937744 629.19601807 -263.40609863 630.29437988 -263.88696289 631.42602539 C-264.55355442 632.96756399 -265.24890939 634.49781878 -266 636 C-277.312315 636.18011327 -288.62481282 636.34515071 -299.9375 636.5 C-300.8046463 636.51187725 -301.6717926 636.5237545 -302.56521606 636.53599167 C-334.87717856 636.97387847 -367.1852938 637.08802756 -399.5 637.0625 C-400.59142681 637.06164398 -401.68285362 637.06078796 -402.80735397 637.05990601 C-416.20491961 637.04860891 -429.60246061 637.02867335 -443 637 C-442.26849929 631.97830394 -440.76132129 627.93707225 -438.5 623.42578125 C-437.97378304 622.34924538 -437.97378304 622.34924538 -437.43693542 621.2509613 C-435.51881586 617.33587797 -433.56232048 613.44037233 -431.6027832 609.54589844 C-430.81343301 607.96999297 -430.02525444 606.39350008 -429.23828125 604.81640625 C-428.85319901 604.04517426 -428.46811676 603.27394226 -428.07136536 602.4793396 C-426.01450805 598.29147968 -424.25735929 594.17731589 -422.85546875 589.71484375 C-419.82422968 580.34100913 -419.82422968 580.34100913 -416 577 C-408.32882147 573.24241123 -399.84970694 571.95519997 -391.48779297 570.59130859 C-386.69695223 569.7790857 -382.02185064 568.62254621 -377.3125 567.4375 C-375.62566381 567.03626147 -373.93815374 566.637846 -372.25 566.2421875 C-367.48346406 565.11756029 -362.72241459 563.97088239 -357.96166992 562.82202148 C-347.06106943 560.19299845 -336.14739571 557.62744523 -325.2175293 555.12280273 C-320.38191687 554.01434124 -315.54902631 552.89886415 -310.7265625 551.734375 C-309.93958984 551.54504395 -309.15261719 551.35571289 -308.34179688 551.16064453 C-306.91767859 550.81653489 -305.49441589 550.46885393 -304.07226562 550.11669922 C-300.89818274 549.35125311 -298.30208124 549 -295 549 C-296.8909035 538.98804851 -299.14152331 529.12607386 -301.67163086 519.25854492 C-304.79954425 507.04397051 -307.77879619 494.8121606 -310.5 482.5 C-313.39220448 469.42097956 -316.58340619 456.43206675 -319.89257812 443.453125 C-327.59276917 413.19040442 -327.59276917 413.19040442 -324.609375 405.58203125 C-324.31401855 404.80867432 -324.01866211 404.03531738 -323.71435547 403.23852539 C-323.23699951 402.03764282 -323.23699951 402.03764282 -322.75 400.8125 C-322.10006684 399.12036538 -321.45162523 397.4276571 -320.8046875 395.734375 C-320.49112305 394.92033203 -320.17755859 394.10628906 -319.85449219 393.26757812 C-318.77138621 390.39332433 -317.81132108 387.4875361 -316.875 384.5625 C-315.66984614 380.86095601 -314.30866546 377.31635043 -312.75 373.75 C-309.68498445 366.59513399 -307.34016687 359.20413375 -304.94238281 351.80371094 C-303.11835747 346.2077251 -301.14103062 340.73402932 -298.9128418 335.28662109 C-297.60978849 332.02254051 -296.52212004 328.71835023 -295.4375 325.375 C-293.75259855 320.19323751 -291.94304254 315.08847824 -290 310 C-285.78311584 298.941436 -285.78311584 298.941436 -281.9375 287.75 C-280.71110165 283.98570792 -279.33651229 280.3763138 -277.75 276.75 C-274.68498445 269.59513399 -272.34016687 262.20413375 -269.94238281 254.80371094 C-268.15467376 249.31914102 -266.21718001 243.95983196 -264.03344727 238.62158203 C-262.00675736 233.48040645 -260.27810927 228.23116105 -258.5 223 C-256.12131482 216.00195692 -253.67642675 209.07378122 -250.88427734 202.22949219 C-249.63003833 199.06723082 -248.5964335 195.86632786 -247.5625 192.625 C-246.11986566 188.18181924 -244.56599833 183.84270257 -242.6875 179.5625 C-239.63206027 172.47504011 -237.31906311 165.1389707 -234.94213867 157.80297852 C-233.15451881 152.31865189 -231.21708186 146.95959201 -229.03344727 141.62158203 C-227.00675736 136.48040645 -225.27810927 131.23116105 -223.5 126 C-221.12131482 119.00195692 -218.67642675 112.07378122 -215.88427734 105.22949219 C-214.63003833 102.06723082 -213.5964335 98.86632786 -212.5625 95.625 C-211.11986566 91.18181924 -209.56599833 86.84270257 -207.6875 82.5625 C-205.07214751 76.49851237 -203.05212536 70.27067409 -201 64 C-196.86910408 51.37850657 -196.86910408 51.37850657 -194.5 46 C-191.47015404 39.11865494 -189.25667134 31.94632487 -186.94140625 24.80078125 C-184.39951292 17.00225251 -181.7019805 9.33102385 -178 2 C-149.67381372 1.05061362 -121.35071962 0.71078508 -93.01074219 0.46777344 C-88.42073953 0.42747605 -83.83077622 0.38341564 -79.24080849 0.33934593 C-52.82663103 0.08692909 -26.41540091 -0.07157281 0 0 Z " fill="#FAF5EA" transform="translate(1703,842)"/>
<path d="M0 0 C0.3309668 0.72251953 0.66193359 1.44503906 1.00292969 2.18945312 C7.34036769 15.99835106 13.78060825 29.72694368 20.62915039 43.29174805 C24.34610853 50.66179907 27.95202742 58.07721244 31.47583008 65.54150391 C34.03916101 70.95528093 36.65695826 76.33723365 39.34043884 81.692276 C40.94129198 84.88919314 42.53038546 88.09190189 44.11929321 91.29476929 C44.91208662 92.88455334 45.71054074 94.47152759 46.51473999 96.05557251 C47.64540354 98.28405146 48.75610915 100.52149757 49.86328125 102.76171875 C50.21053253 103.43363251 50.55778381 104.10554626 50.91555786 104.79782104 C53.17873109 109.44438949 53.17873109 109.44438949 52.40066719 111.86310959 C50.51187961 114.74468781 48.18645339 117.08202868 45.7482605 119.49224854 C45.20752274 120.03469515 44.66678498 120.57714176 44.10966122 121.13602614 C42.29641438 122.9525674 40.47611144 124.76186772 38.65576172 126.57128906 C37.3545611 127.87192556 36.05380068 129.17300257 34.75344849 130.4744873 C31.22095427 134.00755599 27.68232188 137.53441876 24.14257193 141.06021595 C20.44476067 144.74553558 16.75260198 148.43650928 13.05984497 152.12689209 C6.06571575 159.11480194 -0.93349669 166.09759734 -7.93454063 173.07857871 C-15.90451653 181.02620987 -23.86882286 188.97951209 -31.83265328 196.9333005 C-48.21545916 213.29519401 -64.60538744 229.6499374 -81 246 C-79.72512174 248.79187652 -78.40859485 250.84087419 -76.23950768 253.00658798 C-75.67469889 253.57537886 -75.10989011 254.14416975 -74.5279659 254.73019671 C-73.90734891 255.34498802 -73.28673192 255.95977933 -72.64730835 256.59320068 C-71.98814757 257.25407031 -71.32898679 257.91493994 -70.64985144 258.59583592 C-68.43584659 260.81313984 -66.21476011 263.02321134 -63.99365234 265.23339844 C-62.40674112 266.81974564 -60.82026992 268.40653313 -59.23420715 269.99372864 C-54.92281488 274.30569577 -50.6052749 278.61145979 -46.28662825 282.91615963 C-41.77603065 287.41427212 -37.2710795 291.91803227 -32.76553345 296.42120361 C-25.20106951 303.98015352 -17.63312328 311.5355992 -10.0625 319.08837891 C-2.26490934 326.86761013 5.53057693 334.64894021 13.32324219 342.43310547 C13.80362303 342.91296086 14.28400387 343.39281626 14.77894171 343.88721272 C17.1888703 346.29453123 19.59875758 348.7018911 22.00862432 351.10927153 C41.99934796 371.07926344 61.99738128 391.04192316 82 411 C79.2224732 413.12432164 76.55869541 414.83431454 73.4128418 416.36914062 C72.50636398 416.81390747 71.59988617 417.25867432 70.66593933 417.71691895 C69.68692154 418.19189819 68.70790375 418.66687744 67.69921875 419.15625 C66.67182083 419.65862183 65.64442291 420.16099365 64.58589172 420.67858887 C61.28833115 422.28965931 57.98791909 423.89479507 54.6875 425.5 C52.53953568 426.54911509 50.39174748 427.59859085 48.24414062 428.6484375 C36.89967517 434.18800504 25.53063385 439.67403703 14.13633728 445.11032104 C8.29399367 447.89870435 2.46149012 450.70611643 -3.359375 453.5390625 C-4.06764938 453.88366516 -4.77592377 454.22826782 -5.50566101 454.58331299 C-8.31707162 455.95186664 -11.12798935 457.32142105 -13.93798828 458.69287109 C-16.05683164 459.72655688 -18.17676589 460.75797586 -20.296875 461.7890625 C-20.93107361 462.09937408 -21.56527222 462.40968567 -22.21868896 462.72940063 C-24.79267406 463.97969146 -27.28079245 465.09359748 -30 466 C-101.94 394.06 -173.88 322.12 -248 248 C-246.16793265 244.3358653 -244.77632684 242.52588629 -241.94885254 239.69717026 C-241.09615532 238.83925754 -240.2434581 237.98134483 -239.36492157 237.09743476 C-238.4132939 236.15013121 -237.46157185 235.20292248 -236.50976562 234.25579834 C-235.50258926 233.24631803 -234.49584939 232.23640207 -233.48950958 231.22608781 C-230.72040554 228.44861839 -227.94507786 225.67744126 -225.16869736 222.90724802 C-222.17666747 219.91973437 -219.19038734 216.92648294 -216.20336914 213.93395996 C-210.35044345 208.07213042 -204.49211058 202.21573364 -198.63183594 196.36125204 C-193.87136339 191.60529121 -189.11284039 186.84738801 -184.35571289 182.08808136 C-183.67937317 181.41143518 -183.00303346 180.73478899 -182.3061986 180.03763838 C-180.93238064 178.663181 -179.55856719 177.28871912 -178.18475819 175.91425279 C-165.29619318 163.0199818 -152.40149968 150.13185353 -139.5047121 137.24580744 C-128.4280492 126.17808433 -117.35664634 115.10512212 -106.2890625 104.02832031 C-93.44688193 91.1754488 -80.6014787 78.3258124 -67.75087738 65.48135972 C-66.38200975 64.11312921 -65.01314631 62.74489452 -63.64428711 61.37665558 C-62.9707156 60.70339262 -62.2971441 60.03012967 -61.60316133 59.33646481 C-56.84630352 54.58133717 -52.09177733 49.82388579 -47.33813477 45.06554413 C-41.55015862 39.27197238 -35.75866051 33.48194971 -29.9625473 27.69651815 C-27.0028689 24.7421137 -24.04484499 21.78610007 -21.09109497 18.82576752 C-18.39125829 16.12000499 -15.68690983 13.41884188 -12.97876644 10.72139409 C-11.99589066 9.74076667 -11.01472661 8.75842022 -10.03538609 7.77426216 C-8.71188956 6.44475177 -7.38171728 5.12189661 -6.05114746 3.79946518 C-5.31177696 3.06041939 -4.57240646 2.32137359 -3.8106308 1.55993247 C-2 0 -2 0 0 0 Z " fill="#FAF5EA" transform="translate(634,950)"/>
<path d="M0 0 C22.1053377 -0.25729482 44.21042751 -0.45109976 66.31696033 -0.56993389 C76.58217829 -0.62658492 86.84646433 -0.70377745 97.11108398 -0.82983398 C106.06085957 -0.93969067 115.00996011 -1.01049088 123.96039122 -1.03497344 C128.69726678 -1.04927925 133.43221173 -1.08274181 138.16846657 -1.16303062 C142.63341408 -1.23810188 147.09564996 -1.26065019 151.56116867 -1.24418449 C153.19344426 -1.24719317 154.82581718 -1.26884373 156.45754433 -1.31126022 C163.91698366 -1.49553862 170.16794314 -1.52229357 175.87406033 3.84246081 C178.0369826 6.1296415 180.01167954 8.56103036 182 11 C183.3662389 12.26197965 184.75613062 13.49990449 186.1875 14.6875 C189.6427256 17.63605301 192.81447543 20.79595161 196 24.03125 C197.93891002 25.93986455 199.93699551 27.72710552 202 29.5 C205.51141648 32.51762353 208.75307402 35.73359081 212 39.03125 C213.93891002 40.93986455 215.93699551 42.72710552 218 44.5 C221.51001511 47.51641923 224.75051276 50.73095132 227.99609375 54.02734375 C230.57705288 56.56805401 233.30020809 58.91230984 236.0546875 61.26171875 C238.62620008 63.55955629 240.95074095 66.05962894 243.26171875 68.6171875 C245.60321931 70.47986435 246.99907815 70.77185974 250 71 C252.53774586 70.05621482 254.77063559 69.06853238 257.16015625 67.8359375 C257.85356613 67.49264404 258.54697601 67.14935059 259.26139832 66.7956543 C260.75470151 66.05458374 262.24491597 65.30726302 263.7322998 64.55438232 C266.88924242 62.95656153 270.06067818 61.38860075 273.23184204 59.81924438 C274.84437342 59.02106593 276.45616713 58.22139551 278.06723022 57.42025757 C285.07081325 53.94276261 292.14095399 50.63206256 299.25 47.375 C306.64052733 43.98107147 314.00026696 40.5359307 321.30859375 36.96875 C322.00866547 36.62744049 322.70873718 36.28613098 323.43002319 35.93447876 C326.8282027 34.27615773 330.22269884 32.610832 333.61230469 30.93505859 C339.96892199 27.81178893 346.20057159 25.01846521 353 23 C352.22344489 27.7524698 350.67426926 32.16886655 349.11328125 36.70703125 C348.67252762 38.00002388 348.67252762 38.00002388 348.22286987 39.31913757 C347.256153 42.15143597 346.28456756 44.98203393 345.3125 47.8125 C344.64030457 49.77601555 343.96818633 51.73955753 343.29614258 53.703125 C338.93257651 66.43707074 334.5370607 79.16008361 330.10458374 91.87020874 C329.49529983 93.61736597 328.88675372 95.36478067 328.27896118 97.11245728 C327.43235582 99.54474381 326.58204814 101.97570117 325.73046875 104.40625 C325.48215302 105.12092941 325.23383728 105.83560883 324.97799683 106.57194519 C323.82167112 109.85829575 322.56349658 112.87300684 321 116 C201.87 116 82.74 116 -40 116 C-37.76190476 105.92857143 -37.76190476 105.92857143 -36.125 101.6875 C-34.64268075 97.75301694 -33.2505148 93.8068822 -31.9375 89.8125 C-30.87040511 86.57812711 -29.78695305 83.36557477 -28.5625 80.1875 C-26.61702797 75.11651554 -24.97230016 69.941121 -23.28125 64.78125 C-22.17908629 61.52852294 -21.00697737 58.32201575 -19.79003906 55.11181641 C-18.34215673 51.24154996 -16.98712075 47.33860167 -15.625 43.4375 C-15.32045898 42.56706055 -15.01591797 41.69662109 -14.70214844 40.79980469 C-12.84130937 35.46383399 -11.02276222 30.11582673 -9.25 24.75 C-7.01241939 17.99352696 -4.55627004 11.37669882 -1.91015625 4.76953125 C-1.55187744 3.87468018 -1.19359863 2.9798291 -0.82446289 2.05786133 C-0.41635376 1.03921997 -0.41635376 1.03921997 0 0 Z " fill="#FAF5EA" transform="translate(354,1365)"/>
<path d="M0 0 C10.35903291 7.63381041 16.68076007 18.5894986 23.08984375 29.48046875 C25.3564628 33.33007642 27.66765699 37.14761259 30.0390625 40.93359375 C30.72355469 42.03960938 31.40804688 43.145625 32.11328125 44.28515625 C35.18443374 48.433624 38.06444954 51.45594199 43.0234375 53.3046875 C48.15127367 53.31070609 52.71388027 51.83184123 57.6015625 50.37109375 C58.70056885 50.05333984 59.7995752 49.73558594 60.93188477 49.40820312 C69.83493311 46.81445638 78.68808799 44.05792538 87.53930664 41.29345703 C96.23939315 38.59659283 105.00239067 36.20831435 113.80786133 33.8828125 C122.82562004 31.48733211 131.73734992 28.8079846 140.65234375 26.05859375 C155.99286137 21.32950248 171.42644194 16.98123258 186.9453125 12.87866211 C194.53905313 10.85178307 202.03616474 8.61030799 209.47973633 6.08569336 C213.26468363 4.8295103 216.38053432 4.19183654 220.3515625 4.30859375 C218.15559216 30.1023746 215.739595 55.86906991 213.1015625 81.62109375 C212.99907825 82.62157934 212.99907825 82.62157934 212.89452362 83.64227676 C212.05178968 91.86489169 211.20411651 100.0869914 210.3515625 108.30859375 C203.38396468 109.81960422 196.45588921 110.86701134 189.37109375 111.640625 C188.33732101 111.75734558 187.30354828 111.87406616 186.2384491 111.99432373 C184.02789171 112.24378223 181.81713609 112.49148936 179.60620117 112.73757935 C173.7350115 113.39173248 167.86547955 114.06034758 161.99609375 114.73046875 C160.82249298 114.86437515 159.64889221 114.99828156 158.43972778 115.13624573 C148.39777966 116.28901837 138.37311424 117.55419417 128.3515625 118.87109375 C113.76721183 120.78402356 99.16652133 122.49043307 84.5480957 124.12136841 C71.63227695 125.56471369 58.73778524 127.12183309 45.8515625 128.80859375 C31.32401403 130.70771209 16.78320801 132.4594581 2.2265625 134.12109375 C1.26065186 134.23227539 0.29474121 134.34345703 -0.70043945 134.45800781 C-3.43535297 134.77212319 -6.170696 135.08214288 -8.90625 135.390625 C-9.71897369 135.48410721 -10.53169739 135.57758942 -11.36904907 135.67390442 C-15.15070554 136.09479632 -18.83570614 136.42056474 -22.6484375 136.30859375 C-23.10992188 135.31601562 -23.57140625 134.3234375 -24.046875 133.30078125 C-32.89138898 114.70379641 -44.02910098 97.71688083 -63.6484375 89.30859375 C-73.05563412 86.94296048 -81.46326545 88.34290494 -89.82421875 93.125 C-114.73150051 109.48595241 -135.23132867 143.7187263 -145.6484375 171.30859375 C-145.9784375 171.30859375 -146.3084375 171.30859375 -146.6484375 171.30859375 C-145.64037658 162.9111688 -144.23468071 154.61452461 -142.6484375 146.30859375 C-142.45652832 145.30183594 -142.26461914 144.29507813 -142.06689453 143.2578125 C-137.0941406 117.64640444 -130.33945219 92.7162951 -118.6484375 69.30859375 C-118.29313965 68.57785645 -117.9378418 67.84711914 -117.57177734 67.09423828 C-100.92646256 32.98922889 -76.02058226 9.06037573 -40.18359375 -3.94921875 C-25.68792819 -8.61261622 -12.96289652 -8.278664 0 0 Z " fill="#F9F5EA" transform="translate(1549.6484375,668.69140625)"/>
</svg>
